#Comment line ignore any data following # character 
#Hierarchical Translation and Rotation (.htr) file 
[Header]	
#Header keywords are followed by a single value 
FileType HTR		#Single word string
DataType HTRS		#Translation followed by rotation and scale data
FileVersion 1		#integer
NumSegments 84		#integer
NumFrames 2		#integer
DataFrameRate 30		#integer, data frame rate in this file
EulerRotationOrder ZYX
CalibrationUnits mm
RotationUnits Degrees
GlobalAxisofGravity Y
BoneLengthAxis Y
ScaleFactor 1.00
[SegmentNames&Hierarchy]
#CHILD	PARENT
MASTER GLOBAL
root MASTER
chest root
L_mid_tent01 root
R_mid_tent01 root
spine01 root
Bip01_Neck chest
L_humerus chest
R_humerus chest
weapon_bone chest
Bip01_Head Bip01_Neck
eye_left_bone Bip01_Head
eye_right_bone Bip01_Head
L_forearm L_humerus
L_front_hand L_forearm
L_weapon_bone L_forearm
L_front_hand01_01 L_front_hand
L_front_hand02_01 L_front_hand
L_front_hand03_01 L_front_hand
L_front_hand01_02 L_front_hand01_01
L_front_hand02_02 L_front_hand02_01
L_front_hand03_02 L_front_hand03_01
R_forearm R_humerus
R_front_hand R_forearm
R_weapon_bone R_forearm
R_front_hand01_01 R_front_hand
R_front_hand02_01 R_front_hand
R_front_hand03_01 R_front_hand
R_front_hand01_02 R_front_hand01_01
R_front_hand02_02 R_front_hand02_01
R_front_hand03_02 R_front_hand03_01
null_rope01_connect L_mid_tent01
Rope1_Seg01 null_rope01_connect
Rope1_Seg02 Rope1_Seg01
Rope1_Seg03 Rope1_Seg02
Rope1_Seg04 Rope1_Seg03
Rope1_Seg05 Rope1_Seg04
Rope1_Seg06 Rope1_Seg05
Rope1_Seg07 Rope1_Seg06
Rope1_Seg09 Rope1_Seg07
L_mid_hand01 Rope1_Seg09
L_mid_hand02 Rope1_Seg09
L_mid_hand03 Rope1_Seg09
null_rope02_connect R_mid_tent01
Rope2_Seg01 null_rope02_connect
Rope2_Seg02 Rope2_Seg01
Rope2_Seg03 Rope2_Seg02
Rope2_Seg04 Rope2_Seg03
Rope2_Seg05 Rope2_Seg04
Rope2_Seg06 Rope2_Seg05
Rope2_Seg07 Rope2_Seg06
Rope2_Seg09 Rope2_Seg07
R_mid_hand01 Rope2_Seg09
R_mid_hand02 Rope2_Seg09
R_mid_hand03 Rope2_Seg09
spine02 spine01
spine03 spine02
pelvis spine03
null_rope03_connect pelvis
null_rope04_connect pelvis
Rope3_Seg01 null_rope03_connect
Rope3_Seg02 Rope3_Seg01
Rope3_Seg03 Rope3_Seg02
Rope3_Seg04 Rope3_Seg03
Rope3_Seg05 Rope3_Seg04
Rope3_Seg06 Rope3_Seg05
Rope3_Seg07 Rope3_Seg06
Rope3_Seg08 Rope3_Seg07
Rope3_Seg09 Rope3_Seg08
R_rear_hand01 Rope3_Seg09
R_rear_hand02 Rope3_Seg09
R_rear_hand03 Rope3_Seg09
Rope4_Seg01 null_rope04_connect
Rope4_Seg02 Rope4_Seg01
Rope4_Seg03 Rope4_Seg02
Rope4_Seg04 Rope4_Seg03
Rope4_Seg05 Rope4_Seg04
Rope4_Seg06 Rope4_Seg05
Rope4_Seg07 Rope4_Seg06
Rope4_Seg08 Rope4_Seg07
Rope4_Seg09 Rope4_Seg08
L_rear_hand01 Rope4_Seg09
L_rear_hand02 Rope4_Seg09
L_rear_hand03 Rope4_Seg09
[BasePosition]
#SegmentName Tx, Ty, Tz, Rx, Ry, Rz, BoneLength
MASTER 0.000000 0.000000 0.000000 -90.000000 0.000000 0.000000 10.000000 
root 0.000000 0.000000 0.000000 0.000000 0.000000 0.000000 10.000000 
chest 0.000000 0.000000 0.000000 0.000000 0.000000 0.000000 10.000000 
L_mid_tent01 0.000000 0.000000 0.000000 0.000000 0.000000 0.000000 10.000000 
R_mid_tent01 0.000000 0.000000 0.000000 0.000000 0.000000 0.000000 10.000000 
spine01 0.000000 0.000000 0.000000 0.000000 0.000000 0.000000 10.000000 
Bip01_Neck 0.000000 0.000000 0.000000 0.000000 0.000000 0.000000 10.000000 
L_humerus 0.000000 0.000000 0.000000 0.000000 0.000000 0.000000 10.000000 
R_humerus 0.000000 0.000000 0.000000 0.000000 0.000000 0.000000 10.000000 
weapon_bone 0.000000 0.000000 0.000000 0.000000 0.000000 0.000000 10.000000 
Bip01_Head 0.000000 0.000000 0.000000 0.000000 0.000000 0.000000 10.000000 
eye_left_bone 0.000000 0.000000 0.000000 0.000000 0.000000 0.000000 10.000000 
eye_right_bone 0.000000 0.000000 0.000000 0.000000 0.000000 0.000000 10.000000 
L_forearm 0.000000 0.000000 0.000000 0.000000 0.000000 0.000000 10.000000 
L_front_hand 0.000000 0.000000 0.000000 0.000000 0.000000 0.000000 10.000000 
L_weapon_bone 0.000000 0.000000 0.000000 0.000000 0.000000 0.000000 10.000000 
L_front_hand01_01 0.000000 0.000000 0.000000 0.000000 0.000000 0.000000 10.000000 
L_front_hand02_01 0.000000 0.000000 0.000000 0.000000 0.000000 0.000000 10.000000 
L_front_hand03_01 0.000000 0.000000 0.000000 0.000000 0.000000 0.000000 10.000000 
L_front_hand01_02 0.000000 0.000000 0.000000 0.000000 0.000000 0.000000 10.000000 
L_front_hand02_02 0.000000 0.000000 0.000000 0.000000 0.000000 0.000000 10.000000 
L_front_hand03_02 0.000000 0.000000 0.000000 0.000000 0.000000 0.000000 10.000000 
R_forearm 0.000000 0.000000 0.000000 0.000000 0.000000 0.000000 10.000000 
R_front_hand 0.000000 0.000000 0.000000 0.000000 0.000000 0.000000 10.000000 
R_weapon_bone 0.000000 0.000000 0.000000 0.000000 0.000000 0.000000 10.000000 
R_front_hand01_01 0.000000 0.000000 0.000000 0.000000 0.000000 0.000000 10.000000 
R_front_hand02_01 0.000000 0.000000 0.000000 0.000000 0.000000 0.000000 10.000000 
R_front_hand03_01 0.000000 0.000000 0.000000 0.000000 0.000000 0.000000 10.000000 
R_front_hand01_02 0.000000 0.000000 0.000000 0.000000 0.000000 0.000000 10.000000 
R_front_hand02_02 0.000000 0.000000 0.000000 0.000000 0.000000 0.000000 10.000000 
R_front_hand03_02 0.000000 0.000000 0.000000 0.000000 0.000000 0.000000 10.000000 
null_rope01_connect 0.000000 0.000000 0.000000 0.000000 0.000000 0.000000 10.000000 
Rope1_Seg01 0.000000 0.000000 0.000000 0.000000 0.000000 0.000000 10.000000 
Rope1_Seg02 0.000000 0.000000 0.000000 0.000000 0.000000 0.000000 10.000000 
Rope1_Seg03 0.000000 0.000000 0.000000 0.000000 0.000000 0.000000 10.000000 
Rope1_Seg04 0.000000 0.000000 0.000000 0.000000 0.000000 0.000000 10.000000 
Rope1_Seg05 0.000000 0.000000 0.000000 0.000000 0.000000 0.000000 10.000000 
Rope1_Seg06 0.000000 0.000000 0.000000 0.000000 0.000000 0.000000 10.000000 
Rope1_Seg07 0.000000 0.000000 0.000000 0.000000 0.000000 0.000000 10.000000 
Rope1_Seg09 0.000000 0.000000 0.000000 0.000000 0.000000 0.000000 10.000000 
L_mid_hand01 0.000000 0.000000 0.000000 0.000000 0.000000 0.000000 10.000000 
L_mid_hand02 0.000000 0.000000 0.000000 0.000000 0.000000 0.000000 10.000000 
L_mid_hand03 0.000000 0.000000 0.000000 0.000000 0.000000 0.000000 10.000000 
null_rope02_connect 0.000000 0.000000 0.000000 0.000000 0.000000 0.000000 10.000000 
Rope2_Seg01 0.000000 0.000000 0.000000 0.000000 0.000000 0.000000 10.000000 
Rope2_Seg02 0.000000 0.000000 0.000000 0.000000 0.000000 0.000000 10.000000 
Rope2_Seg03 0.000000 0.000000 0.000000 0.000000 0.000000 0.000000 10.000000 
Rope2_Seg04 0.000000 0.000000 0.000000 0.000000 0.000000 0.000000 10.000000 
Rope2_Seg05 0.000000 0.000000 0.000000 0.000000 0.000000 0.000000 10.000000 
Rope2_Seg06 0.000000 0.000000 0.000000 0.000000 0.000000 0.000000 10.000000 
Rope2_Seg07 0.000000 0.000000 0.000000 0.000000 0.000000 0.000000 10.000000 
Rope2_Seg09 0.000000 0.000000 0.000000 0.000000 0.000000 0.000000 10.000000 
R_mid_hand01 0.000000 0.000000 0.000000 0.000000 0.000000 0.000000 10.000000 
R_mid_hand02 0.000000 0.000000 0.000000 0.000000 0.000000 0.000000 10.000000 
R_mid_hand03 0.000000 0.000000 0.000000 0.000000 0.000000 0.000000 10.000000 
spine02 0.000000 0.000000 0.000000 0.000000 0.000000 0.000000 10.000000 
spine03 0.000000 0.000000 0.000000 0.000000 0.000000 0.000000 10.000000 
pelvis 0.000000 0.000000 0.000000 0.000000 0.000000 0.000000 10.000000 
null_rope03_connect 0.000000 0.000000 0.000000 0.000000 0.000000 0.000000 10.000000 
null_rope04_connect 0.000000 0.000000 0.000000 0.000000 0.000000 0.000000 10.000000 
Rope3_Seg01 0.000000 0.000000 0.000000 0.000000 0.000000 0.000000 10.000000 
Rope3_Seg02 0.000000 0.000000 0.000000 0.000000 0.000000 0.000000 10.000000 
Rope3_Seg03 0.000000 0.000000 0.000000 0.000000 0.000000 0.000000 10.000000 
Rope3_Seg04 0.000000 0.000000 0.000000 0.000000 0.000000 0.000000 10.000000 
Rope3_Seg05 0.000000 0.000000 0.000000 0.000000 0.000000 0.000000 10.000000 
Rope3_Seg06 0.000000 0.000000 0.000000 0.000000 0.000000 0.000000 10.000000 
Rope3_Seg07 0.000000 0.000000 0.000000 0.000000 0.000000 0.000000 10.000000 
Rope3_Seg08 0.000000 0.000000 0.000000 0.000000 0.000000 0.000000 10.000000 
Rope3_Seg09 0.000000 0.000000 0.000000 0.000000 0.000000 0.000000 10.000000 
R_rear_hand01 0.000000 0.000000 0.000000 0.000000 0.000000 0.000000 10.000000 
R_rear_hand02 0.000000 0.000000 0.000000 0.000000 0.000000 0.000000 10.000000 
R_rear_hand03 0.000000 0.000000 0.000000 0.000000 0.000000 0.000000 10.000000 
Rope4_Seg01 0.000000 0.000000 0.000000 0.000000 0.000000 0.000000 10.000000 
Rope4_Seg02 0.000000 0.000000 0.000000 0.000000 0.000000 0.000000 10.000000 
Rope4_Seg03 0.000000 0.000000 0.000000 0.000000 0.000000 0.000000 10.000000 
Rope4_Seg04 0.000000 0.000000 0.000000 0.000000 0.000000 0.000000 10.000000 
Rope4_Seg05 0.000000 0.000000 0.000000 0.000000 0.000000 0.000000 10.000000 
Rope4_Seg06 0.000000 0.000000 0.000000 0.000000 0.000000 0.000000 10.000000 
Rope4_Seg07 0.000000 0.000000 0.000000 0.000000 0.000000 0.000000 10.000000 
Rope4_Seg08 0.000000 0.000000 0.000000 0.000000 0.000000 0.000000 10.000000 
Rope4_Seg09 0.000000 0.000000 0.000000 0.000000 0.000000 0.000000 10.000000 
L_rear_hand01 0.000000 0.000000 0.000000 0.000000 0.000000 0.000000 10.000000 
L_rear_hand02 0.000000 0.000000 0.000000 0.000000 0.000000 0.000000 10.000000 
L_rear_hand03 0.000000 0.000000 0.000000 0.000000 0.000000 0.000000 10.000000 
#Beginning of Data. Separated by tabs
#Fr	Tx	Ty	Tz	Rx	Ry	Rz	SF
[MASTER]
3 532.686462 588.876404 -227.787811 0.001660 0.001660 0.001660 826.085754
4 799.028748 883.313599 -341.681519 0.001660 0.001660 0.001660 1239.127197
[root]
3 -276.049011 -128.775375 572.900757 -173.772919 -6.792358 -71.011719 648.846252
4 -81.181358 -192.189178 565.789368 -174.929962 -3.241997 -75.344048 603.029602
[chest]
3 -84.512650 -34.090519 0.000000 -66.936928 -29.726858 -163.942535 91.129311
4 -84.512650 -34.090519 0.000000 -73.076546 -29.298456 -161.045074 91.129311
[L_mid_tent01]
3 27.299025 22.179270 -249.918823 -7.498779 15.404548 50.279156 252.381790
4 27.299017 22.179260 -249.918823 -5.028759 15.074458 58.811913 252.381790
[R_mid_tent01]
3 23.228794 24.509907 226.238495 168.085480 -2.827733 52.445580 228.744751
4 23.228794 24.509907 226.238495 165.264099 6.276369 60.297592 228.744751
[spine01]
3 -0.361383 -0.195265 0.000000 -0.000001 -0.000007 22.052340 0.410763
4 -0.361383 -0.195265 0.000000 -0.000001 -0.000007 22.052340 0.410763
[Bip01_Neck]
3 165.484543 71.581718 0.000119 176.643677 -1.657967 43.431911 180.302734
4 165.484543 71.581718 0.000119 176.643677 -1.657967 43.431911 180.302734
[L_humerus]
3 -13.983130 -135.272980 -120.471481 153.190582 70.288002 -114.947060 181.680161
4 -13.983130 -135.272980 -120.471481 153.817154 69.618660 -114.310638 181.680161
[R_humerus]
3 -13.983309 -135.273102 125.287651 -91.419556 -67.080009 -170.175720 184.909012
4 -13.983309 -135.273102 125.287651 -98.378723 -68.274231 -163.512375 184.909012
[weapon_bone]
3 235.964890 -300.705902 0.000000 0.000000 -89.951546 -128.212341 382.234833
4 235.964890 -300.705902 0.000000 0.000000 -89.951546 -128.212341 382.234833
[Bip01_Head]
3 213.328934 186.036819 7.630201 6.350709 6.152095 -43.833920 283.155701
4 213.337097 186.014053 7.923944 7.873075 6.149132 -43.833103 283.154968
[eye_left_bone]
3 -24.626970 125.451866 -64.772606 0.000000 -90.000000 -99.840431 143.318359
4 -24.626970 125.451866 -64.772606 0.000000 -90.000000 -99.840431 143.318359
[eye_right_bone]
3 -24.626970 125.451866 64.327362 0.000000 -89.965736 80.156380 143.117676
4 -24.626970 125.451866 64.327362 0.000000 -89.965736 80.156380 143.117676
[L_forearm]
3 322.776093 0.000000 -0.000119 0.000281 -0.002330 -103.751038 322.776093
4 322.776093 0.000000 -0.000119 0.000288 -0.002330 -104.110794 322.776093
[L_front_hand]
3 241.149185 -0.042021 -3.300071 -105.490532 -1.835779 -27.423635 241.171753
4 241.149185 -0.042021 -3.300071 -105.490532 -1.835780 -27.423639 241.171753
[L_weapon_bone]
3 156.183838 0.000000 0.000000 0.000014 0.000007 0.000001 156.183838
4 156.183838 0.000000 0.000000 0.000014 0.000007 0.000001 156.183838
[L_front_hand01_01]
3 86.095154 20.947098 -0.655860 -0.366594 -0.477154 75.385582 88.609184
4 86.095154 20.947098 -0.655860 -0.366594 -0.477154 75.385582 88.609184
[L_front_hand02_01]
3 86.935165 -11.437475 24.513514 154.399796 -59.883835 -61.369587 91.046425
4 86.935165 -11.437475 24.513514 154.399796 -59.883820 -61.369579 91.046425
[L_front_hand03_01]
3 86.637497 -14.123976 -20.424902 -153.913849 58.118130 -62.702866 90.126129
4 86.637497 -14.123976 -20.424902 -153.913864 58.118134 -62.702885 90.126129
[L_front_hand01_02]
3 71.020905 -0.000179 0.000030 0.000334 -0.002323 -106.379684 71.020905
4 71.020905 -0.000179 0.000030 0.000334 -0.002323 -106.379684 71.020905
[L_front_hand02_02]
3 71.020927 -0.000119 0.000060 0.000334 -0.002323 -106.379684 71.020927
4 71.020927 -0.000119 0.000060 0.000334 -0.002323 -106.379684 71.020927
[L_front_hand03_02]
3 71.020905 -0.000060 0.000060 0.000334 -0.002323 -106.379684 71.020905
4 71.020905 -0.000060 0.000060 0.000334 -0.002323 -106.379684 71.020905
[R_forearm]
3 322.776428 -0.000060 0.000030 0.207391 0.042062 -102.348175 322.776428
4 322.776428 -0.000060 0.000030 0.207646 0.043203 -102.711372 322.776428
[R_front_hand]
3 238.847015 -0.006795 2.210259 -2.635298 -10.645461 -26.312506 238.857239
4 238.847015 -0.006795 2.210259 -2.635298 -10.645461 -26.312504 238.857239
[R_weapon_bone]
3 155.664093 0.002503 -0.000030 0.003487 0.001180 -90.988930 155.664078
4 155.664093 0.002503 -0.000030 0.003487 0.001180 -90.988930 155.664078
[R_front_hand01_01]
3 87.624611 14.231146 22.918642 -154.633499 -59.950619 61.746044 91.683487
4 87.624611 14.231146 22.918642 -154.633499 -59.950626 61.746044 91.683487
[R_front_hand02_01]
3 89.356956 14.367283 -19.491137 154.602661 58.302849 63.744389 92.579636
4 89.356956 14.367283 -19.491137 154.602676 58.302849 63.744400 92.579636
[R_front_hand03_01]
3 87.286232 -22.307278 -0.143439 0.162155 -0.423168 -75.767906 90.091743
4 87.286232 -22.307278 -0.143439 0.162155 -0.423168 -75.767921 90.091743
[R_front_hand01_02]
3 71.020905 0.000060 0.000119 0.002323 -0.000334 106.381714 71.020905
4 71.020905 0.000060 0.000119 0.002323 -0.000334 106.381714 71.020905
[R_front_hand02_02]
3 71.020844 -0.000030 -0.000119 0.002323 -0.000334 106.381714 71.020836
4 71.020844 -0.000030 -0.000119 0.002323 -0.000334 106.381714 71.020836
[R_front_hand03_02]
3 71.020905 0.000000 0.000030 0.002323 -0.000334 106.381714 71.020905
4 71.020905 0.000000 0.000030 0.002323 -0.000334 106.381714 71.020905
[null_rope01_connect]
3 328.732483 0.000000 -0.000238 -166.483902 6.377452 -122.382713 328.732483
4 328.732483 0.000000 -0.000238 -170.886322 8.401560 -134.595581 328.732483
[Rope1_Seg01]
3 -0.000021 -0.000066 0.000000 -71.083954 -73.821770 -173.189987 0.000070
4 -0.000022 -0.000080 0.000000 -100.116638 -62.617413 -142.249496 0.000083
[Rope1_Seg02]
3 139.999863 -0.000179 0.000000 4.176890 5.078923 3.660179 139.999863
4 139.999863 -0.000179 0.000000 12.216087 6.669970 7.645792 139.999863
[Rope1_Seg03]
3 139.999924 0.000060 -0.000060 6.082767 8.147656 5.069074 139.999924
4 139.999924 0.000060 -0.000060 16.206430 11.855792 8.353312 139.999924
[Rope1_Seg04]
3 139.999924 -0.000060 -0.000119 9.602611 18.413708 6.605822 139.999924
4 139.999924 -0.000060 -0.000119 14.958241 17.075623 6.340491 139.999924
[Rope1_Seg05]
3 139.999832 0.000119 -0.000060 6.764915 17.187157 7.416698 139.999832
4 139.999832 0.000119 -0.000060 3.223863 1.563428 4.321779 139.999832
[Rope1_Seg06]
3 139.999954 0.000119 -0.000060 2.518927 -2.183149 13.442720 139.999954
4 139.999954 0.000119 -0.000060 1.298605 0.044935 2.292307 139.999954
[Rope1_Seg07]
3 139.999985 0.000060 0.000000 5.433378 2.402624 11.012350 139.999985
4 139.999985 0.000060 0.000000 1.282530 0.958150 1.159903 139.999985
[Rope1_Seg09]
3 121.602913 0.000119 -0.000089 -89.793175 -1.359789 0.847147 121.602913
4 121.602913 0.000119 -0.000089 -89.793175 -1.359789 0.847147 121.602913
[L_mid_hand01]
3 103.859421 1.038730 8.195221 130.544373 -67.584534 -38.866943 104.187431
4 103.859421 1.038730 8.195221 130.544373 -67.584534 -38.866947 104.187431
[L_mid_hand02]
3 105.572853 -4.139662 -10.864139 -168.923172 43.409309 -73.498886 106.211075
4 105.572853 -4.139662 -10.864139 -168.923172 43.409309 -73.498886 106.211075
[L_mid_hand03]
3 104.641464 17.579376 -3.913581 -6.012627 17.808174 74.893669 106.179977
4 104.641464 17.579376 -3.913581 -6.012627 17.808174 74.893669 106.179977
[null_rope02_connect]
3 328.732849 0.000179 -0.000119 -4.461727 -0.390299 122.502068 328.732849
4 328.732849 0.000179 -0.000119 -4.411541 -8.997081 136.583817 328.732849
[Rope2_Seg01]
3 0.000000 0.000139 -0.000068 -152.175919 46.993687 139.224106 0.000154
4 0.000000 0.000112 -0.000064 -132.301117 40.378452 146.903549 0.000129
[Rope2_Seg02]
3 139.999741 -0.000060 -0.000119 6.258854 -0.883100 -3.212168 139.999756
4 139.999741 -0.000060 -0.000119 35.877220 -6.552786 -15.725667 139.999756
[Rope2_Seg03]
3 140.000107 0.000030 0.000000 9.967896 -1.923586 -4.874416 140.000107
4 140.000107 0.000030 0.000000 37.758270 -28.997528 -24.670053 140.000107
[Rope2_Seg04]
3 139.999802 0.000000 -0.000060 17.129782 -5.088124 -8.330076 139.999802
4 139.999802 0.000000 -0.000060 3.565769 -28.982649 1.175299 139.999802
[Rope2_Seg05]
3 139.999985 -0.000060 0.000119 31.841536 -24.035688 -20.547483 139.999985
4 139.999985 -0.000060 0.000119 -1.048023 5.259084 10.787849 139.999985
[Rope2_Seg06]
3 139.999893 -0.000030 -0.000119 12.330869 -25.178577 -11.478886 139.999893
4 139.999893 -0.000030 -0.000119 -0.541676 0.918646 4.459656 139.999893
[Rope2_Seg07]
3 139.999893 0.000060 -0.000060 2.378106 -3.948989 -6.384432 139.999893
4 139.999893 0.000060 -0.000060 -0.250109 -0.225909 2.247655 139.999893
[Rope2_Seg09]
3 121.338966 0.000089 -0.000060 33.793236 -1.359788 -0.847141 121.338966
4 121.338966 0.000089 -0.000060 33.793236 -1.359788 -0.847141 121.338966
[R_mid_hand01]
3 104.680779 11.144459 -10.335981 -16.212055 45.237240 70.462852 105.778534
4 104.680779 11.144459 -10.335981 -16.212059 45.237240 70.462852 105.778534
[R_mid_hand02]
3 104.070427 2.443552 8.231699 49.067383 -67.749779 39.286449 104.424065
4 104.070427 2.443552 8.231699 49.067387 -67.749794 39.286457 104.424065
[R_mid_hand03]
3 106.028137 -11.221827 -5.996406 -177.101105 15.551026 -76.585571 106.788818
4 106.028137 -11.221827 -5.996406 -177.101105 15.551029 -76.585587 106.788818
[spine02]
3 129.756927 0.001550 0.000119 -0.220510 -4.055558 -4.714923 129.756927
4 129.756927 0.001550 0.000119 -0.183591 -4.057175 -5.237213 129.756927
[spine03]
3 78.614075 0.081040 -4.899037 1.546275 3.986853 11.368317 78.766617
4 78.614082 0.081077 -4.899043 1.568880 3.977630 11.692444 78.766624
[pelvis]
3 169.435242 0.051022 0.000000 -0.027209 -0.190467 3.756779 169.435257
4 169.435242 0.051022 0.000000 -0.029717 -0.190259 4.415235 169.435257
[null_rope03_connect]
3 -1.257226 -2.466202 137.391083 -175.647324 -8.624530 -103.802315 137.418976
4 -1.257226 -2.466202 137.391083 -178.156982 -6.295295 -108.572281 137.418976
[null_rope04_connect]
3 -1.259640 -2.480268 -137.844437 -175.647324 -8.624530 -103.802315 137.872513
4 -1.259640 -2.480268 -137.844437 -178.156982 -6.295295 -108.572281 137.872513
[Rope3_Seg01]
3 0.000000 0.000000 0.000000 17.118216 -2.606814 -92.935677 0.000000
4 0.000000 0.000000 0.000000 29.475439 -25.236160 -106.556961 0.000000
[Rope3_Seg02]
3 139.999924 -0.000119 0.000060 -25.141714 33.963852 -35.427402 139.999924
4 139.999924 -0.000119 0.000060 -34.258175 22.242811 -32.417332 139.999924
[Rope3_Seg03]
3 139.999924 -0.000119 0.000119 -2.772141 13.937084 -1.289172 139.999924
4 139.999924 -0.000119 0.000119 -13.933208 23.656588 -5.159194 139.999924
[Rope3_Seg04]
3 139.999924 0.000119 0.000000 0.486393 -6.598319 -11.051041 139.999924
4 139.999924 0.000119 0.000000 0.235356 -7.974960 -14.245159 139.999924
[Rope3_Seg05]
3 139.999924 -0.000238 0.000060 7.667604 -18.698128 -22.363405 139.999924
4 139.999924 -0.000238 0.000060 5.607860 -11.877878 -13.398011 139.999924
[Rope3_Seg06]
3 139.999893 -0.000119 -0.000060 8.718812 -11.890979 -12.431767 139.999893
4 139.999893 -0.000119 -0.000060 1.763592 -3.652572 -4.469979 139.999893
[Rope3_Seg07]
3 139.999771 0.000060 -0.000119 8.112490 -5.996315 -5.186606 139.999771
4 139.999771 0.000060 -0.000119 1.450555 -2.259756 -2.713437 139.999771
[Rope3_Seg08]
3 139.999985 -0.000060 0.000000 8.884992 -3.749941 -2.429054 139.999985
4 139.999985 -0.000060 0.000000 1.247993 -1.400560 -1.601424 139.999985
[Rope3_Seg09]
3 90.185997 -0.000179 -0.000060 89.793228 -1.359877 -0.847183 90.185997
4 90.185997 -0.000179 -0.000060 89.793228 -1.359877 -0.847183 90.185997
[R_rear_hand01]
3 103.366196 -6.073594 -10.757982 172.856537 -15.220671 -75.434441 104.101845
4 103.366196 -6.073594 -10.757982 172.856537 -15.220671 -75.434441 104.101845
[R_rear_hand02]
3 100.509819 12.039542 -7.992327 -12.874829 36.868488 72.167213 101.543350
4 100.509819 12.039542 -7.992327 -12.874831 36.868492 72.167221 101.543350
[R_rear_hand03]
3 101.539970 5.215704 5.435467 71.484581 -71.816628 21.513813 101.819031
4 101.539970 5.215704 5.435467 71.484573 -71.816628 21.513819 101.819031
[Rope4_Seg01]
3 -0.000084 -0.000034 -0.000075 -84.145500 -79.504944 -130.755005 0.000118
4 -0.000088 -0.000032 -0.000075 -95.127960 -58.452656 -115.619652 0.000120
[Rope4_Seg02]
3 139.999985 0.000060 0.000119 1.943663 9.211337 15.738588 139.999985
4 139.999985 0.000060 0.000119 1.621576 14.395831 15.245865 139.999985
[Rope4_Seg03]
3 139.999924 0.000000 -0.000238 -0.414306 10.263758 13.847507 139.999924
4 139.999924 0.000000 -0.000238 -0.356402 10.568891 8.713809 139.999924
[Rope4_Seg04]
3 139.999985 0.000000 0.000119 -2.532672 7.032958 10.811016 139.999985
4 139.999985 0.000000 0.000119 -2.318769 4.399054 7.105180 139.999985
[Rope4_Seg05]
3 139.999802 -0.000060 -0.000119 -7.359705 -0.628019 12.406396 139.999802
4 139.999802 -0.000060 -0.000119 -3.245109 -0.178331 5.357064 139.999802
[Rope4_Seg06]
3 139.999924 0.000000 0.000060 -7.368436 -3.312673 10.093639 139.999924
4 139.999924 0.000000 0.000060 -1.883190 0.007982 3.093362 139.999924
[Rope4_Seg07]
3 139.999802 0.000000 0.000000 -4.396730 -1.907864 6.161320 139.999802
4 139.999802 0.000000 0.000000 -1.201988 0.181854 2.087054 139.999802
[Rope4_Seg08]
3 139.999924 0.000000 0.000119 -4.298271 -1.472453 3.735075 139.999924
4 139.999924 0.000000 0.000119 -2.336952 0.087963 1.320664 139.999924
[Rope4_Seg09]
3 90.185791 0.000060 0.000060 -135.617828 2.228885 0.850567 90.185791
4 90.185791 0.000060 0.000060 -135.617828 2.228885 0.850567 90.185791
[L_rear_hand01]
3 101.696655 -8.392275 -7.654577 -12.874829 -36.868488 107.832764 102.329041
4 101.696655 -8.392275 -7.654577 -12.874831 -36.868492 107.832764 102.329041
[L_rear_hand02]
3 102.726799 -1.568258 5.773216 71.484581 71.816628 158.486160 102.900848
4 102.726799 -1.568258 5.773216 71.484573 71.816628 158.486160 102.900848
[L_rear_hand03]
3 104.552910 9.721220 -10.420293 -177.714203 -24.565960 -106.089035 105.519653
4 104.552910 9.721220 -10.420293 -177.714203 -24.565960 -106.089035 105.519653
